<svg width="15" height="18" viewBox="0 0 15 18" fill="none" xmlns="http://www.w3.org/2000/svg">
<path d="M12.0232 9.56293C12.0032 7.28681 13.8502 6.19409 13.9338 6.14081C12.8944 4.59355 11.2768 4.38159 10.6998 4.35665C9.32396 4.21496 8.01387 5.18072 7.31649 5.18072C6.61912 5.18072 5.54075 4.37705 4.39999 4.39972C2.89829 4.42239 1.51579 5.28727 0.742663 6.6543C-0.815851 9.40536 0.344959 13.4827 1.86225 15.7157C2.6053 16.8073 3.48983 18.0372 4.65287 17.9918C5.77357 17.9465 6.1969 17.255 7.54932 17.255C8.90174 17.255 9.28274 17.9918 10.4669 17.9703C11.6712 17.9465 12.4354 16.8549 13.1729 15.7599C14.024 14.4926 14.376 13.2661 14.3961 13.2015C14.3694 13.1902 12.0477 12.2845 12.0232 9.56293Z" fill="white"/>
<path d="M9.79842 2.87941C10.4156 2.11881 10.8322 1.06122 10.7175 0.00708008C9.82841 0.0433921 8.75233 0.610128 8.11398 1.37072C7.5425 2.04293 7.0412 3.11975 7.17704 4.15243C8.16856 4.23064 9.18116 3.63889 9.79842 2.87941Z" fill="white"/>
</svg>
