<svg width="20" height="18" viewBox="0 0 20 18" fill="none" xmlns="http://www.w3.org/2000/svg">
<path fill-rule="evenodd" clip-rule="evenodd" d="M7.55102 13.602C10.8929 13.602 13.602 10.8929 13.602 7.55102C13.602 4.20913 10.8929 1.5 7.55102 1.5C4.20913 1.5 1.5 4.20913 1.5 7.55102C1.5 10.8929 4.20913 13.602 7.55102 13.602ZM7.55102 15.102C11.7213 15.102 15.102 11.7213 15.102 7.55102C15.102 3.38071 11.7213 0 7.55102 0C3.38071 0 0 3.38071 0 7.55102C0 11.7213 3.38071 15.102 7.55102 15.102Z" fill="white"/>
<path d="M12.3081 12.61L13.3234 11.5057L19.1858 16.8958L18.1705 18L12.3081 12.61Z" fill="white"/>
</svg>
